<svg width="1216" height="130" viewBox="0 0 1216 130" fill="none" xmlns="http://www.w3.org/2000/svg">
<rect width="1215" height="130" fill="#D9D9D9"/>
<path d="M45 0H77.5446H112.891L121.728 10H93.0087H55.453L45 0Z" fill="#6FA6D6"/>
<path d="M130.564 0H164.725H182.399H200.072L210.094 10H180.19H139.401L130.564 0Z" fill="#F18D9B"/>
<path d="M221.1 0H253.645H288.991L297.828 10H269.109H231.553L221.1 0Z" fill="#6FA6D6"/>
<path d="M306.665 0H340.826H358.499H376.172L386.194 10H356.29H315.501L306.665 0Z" fill="#F18D9B"/>
<path d="M397.2 0H429.745H465.092L473.928 10H445.209H407.653L397.2 0Z" fill="#6FA6D6"/>
<path d="M482.765 0H516.926H534.599H552.272L562.294 10H532.39H491.601L482.765 0Z" fill="#F18D9B"/>
<path d="M573.301 0H605.845H641.192L650.028 10H621.309H583.754L573.301 0Z" fill="#6FA6D6"/>
<path d="M658.865 0H693.026H710.699H728.373L738.395 10H708.49H667.702L658.865 0Z" fill="#F18D9B"/>
<path d="M749.401 0H781.945H817.292L826.129 10H797.41H759.854L749.401 0Z" fill="#6FA6D6"/>
<path d="M834.965 0H869.126H886.799H904.473L914.495 10H884.59H843.802L834.965 0Z" fill="#F18D9B"/>
<path d="M925.501 0H958.046H993.392L1002.23 10H973.51H935.954L925.501 0Z" fill="#6FA6D6"/>
<path d="M1011.07 0H1045.23H1062.9H1080.57L1090.59 10H1060.69H1019.9L1011.07 0Z" fill="#F18D9B"/>
<path d="M1102 0H1128.77H1157.84L1165.1 10H1141.48H1110.6L1102 0Z" fill="#6FA6D6"/>
<path d="M1178.97 0H1215.47V10H1186.5L1178.97 0Z" fill="#F18D9B"/>
<path d="M0 0H27L37 8H0V0Z" fill="#F18D9B"/>
</svg>
